<svg width="19" height="19" viewBox="0 0 19 19" fill="none" xmlns="http://www.w3.org/2000/svg">
    <g clip-path="url(#clip0_6313_360)">
        <path d="M7.14 9.34C6.31 8.52 5.52 7.72 4.72 6.93C3.32 5.52 1.91 4.12 0.509998 2.71C-0.230002 1.96 -0.150002 0.850001 0.669998 0.280001C1.3 -0.159999 2.11 -0.0799988 2.7 0.500001C3.52 1.3 4.32 2.12 5.13 2.93C6.45 4.25 7.77 5.57 9.09 6.89C9.17 6.97 9.22 7.07 9.29 7.16L9.44 7.2C9.5 7.09 9.54 6.97 9.63 6.89C11.74 4.78 13.85 2.67 15.95 0.560001C16.42 0.0900012 16.96 -0.109999 17.61 0.0800012C18.66 0.390001 19.05 1.66 18.38 2.52C18.28 2.65 18.16 2.76 18.05 2.88C15.98 4.95 13.92 7.01 11.85 9.08C11.76 9.17 11.67 9.24 11.55 9.34C11.66 9.46 11.74 9.55 11.83 9.63C13.93 11.73 16.03 13.84 18.14 15.93C18.55 16.34 18.78 16.81 18.69 17.4C18.52 18.54 17.19 19.1 16.26 18.42C16.13 18.33 16.01 18.21 15.9 18.1C13.82 16.02 11.74 13.94 9.66 11.86C9.57 11.77 9.51 11.67 9.4 11.55C9.28 11.67 9.19 11.75 9.11 11.83C6.99 13.95 4.88 16.06 2.76 18.18C2.27 18.67 1.7 18.85 1.04 18.62C0.059998 18.28 -0.300002 17.07 0.309998 16.24C0.409998 16.11 0.519998 15.99 0.639998 15.88C2.73 13.79 4.81 11.7 6.9 9.62C6.98 9.54 7.05 9.46 7.15 9.36L7.14 9.34Z" fill="#A0A0A0"/>
    </g>
    <defs>
        <clipPath id="clip0_6313_360">
            <rect width="18.7" height="18.71" fill="white"/>
        </clipPath>
    </defs>
</svg>
