<svg width="25" height="20" viewBox="0 0 55 47" fill="none" xmlns="http://www.w3.org/2000/svg">
    <g clip-path="url(#clip0_1316_2246)">
        <path d="M27.5686 0C35.3604 0 43.1522 0 50.9288 0C52.7433 0 54.1766 1.00356 54.756 2.60013C55.305 4.13588 54.8323 5.8693 53.5667 6.91847C52.6975 7.64833 51.6759 7.846 50.5628 7.846C39.5841 7.846 28.6055 7.846 17.6268 7.846C13.1134 7.846 8.6152 7.86121 4.10175 7.846C1.14362 7.8308 -0.7624 5.12423 0.259225 2.49369C0.884398 0.942737 2.31772 0 4.117 0C11.924 0 19.7463 0 27.5686 0Z" fill="#A0A0A0"/>
        <path d="M27.4314 47C19.6396 47 11.8478 47 4.07126 47C2.10425 47 0.503195 45.7532 0.106744 43.9589C-0.289707 42.1799 0.564188 40.416 2.21099 39.5797C2.82091 39.2756 3.49183 39.154 4.16275 39.154C19.7158 39.154 35.2537 39.154 50.8068 39.154C53.2617 39.154 54.9695 40.7962 54.9848 43.077C54.9848 45.3578 53.2617 46.9848 50.8068 47C43.015 47 35.2232 47 27.4466 47H27.4314Z" fill="#A0A0A0"/>
        <path d="M35.3299 27.4002C30.1151 27.4002 24.9002 27.4306 19.6853 27.4002C16.9254 27.385 15.0956 24.8457 15.919 22.2912C16.4375 20.6794 17.8861 19.6302 19.7006 19.615C22.9789 19.5998 26.2725 19.615 29.5509 19.615C36.6717 19.615 43.7926 19.615 50.8983 19.615C53.8259 19.615 55.7167 22.2303 54.756 24.8609C54.1766 26.4575 52.7585 27.4002 50.883 27.4002C45.6986 27.4002 40.5143 27.4002 35.3299 27.4002Z" fill="#A0A0A0"/>
    </g>
    <defs>
        <clipPath id="clip0_1316_2246">
            <rect width="55" height="47" fill="white"/>
        </clipPath>
    </defs>
</svg>
